<?xml version="1.0" encoding="utf-8"?>
<!-- Generator: Adobe Illustrator 19.0.0, SVG Export Plug-In . SVG Version: 6.00 Build 0)  -->
<svg version="1.1" id="Layer_1" xmlns="http://www.w3.org/2000/svg" xmlns:xlink="http://www.w3.org/1999/xlink" x="0px" y="0px"
	 viewBox="0 0 331.2 69.2" style="enable-background:new 0 0 331.2 69.2;" xml:space="preserve">
<style type="text/css">
	.st0{opacity:0.25;fill:#00AEEF;enable-background:new    ;}
	.st1{opacity:0.15;}
	.st2{fill:#00AEEF;}
	.st3{opacity:0.5;fill:#00AEEF;enable-background:new    ;}
	.st4{fill:#FFFFFF;}
</style>
<path id="XMLID_36_" class="st0" d="M44.6,69.2L0,43.6l44.6-24.9l44.6,24.9L44.6,69.2z M8.1,43.7l36.5,20.9L81,43.7L44.6,23.3
	L8.1,43.7z"/>
<g id="XMLID_29_" class="st1">
	<path id="XMLID_24_" class="st2" d="M44.6,2.3L85.1,25L44.6,48.2L4.1,25L44.6,2.3z"/>
	<path id="XMLID_26_" d="M44.6,50.5L0,24.9L44.6,0l44.6,24.9L44.6,50.5z M8.1,25l36.5,20.9L81,25L44.6,4.6L8.1,25z"/>
</g>
<path id="XMLID_30_" class="st2" d="M44.6,50.5L0,24.9L44.6,0l44.6,24.9L44.6,50.5z M8.1,25l36.5,20.9L81,25L44.6,4.6L8.1,25z"/>
<path id="XMLID_7_" class="st3" d="M44.6,59.9L0,34.3l44.6-25l44.6,24.9L44.6,59.9z M8.1,34.3l36.5,20.9L81,34.3L44.6,13.9L8.1,34.3
	z"/>
<g id="XMLID_13_">
	<path id="XMLID_16_" class="st4" d="M107,47.6l15-33c0.1-0.3,0.6-0.5,0.8-0.5h0.5c0.2,0,0.7,0.2,0.8,0.5l14.9,33
		c0.3,0.6-0.1,1.3-0.8,1.3h-3.1c-0.6,0-0.9-0.3-1.1-0.7l-3-6.7h-16c-1,2.3-2,4.5-3,6.7c-0.1,0.3-0.5,0.7-1.1,0.7h-3.1
		C107.1,48.9,106.7,48.3,107,47.6z M129.2,37.2l-6-13.4h-0.2l-6,13.4H129.2z"/>
	<path id="XMLID_21_" class="st4" d="M144,15.5c0-0.5,0.4-0.9,0.9-0.9h11c5.9,0,10.2,3.9,10.2,9.1c0,3.8-2.8,6.5-5.1,7.8
		c2.6,1.1,6.1,3.5,6.1,8c0,5.5-4.5,9.5-10.7,9.5h-11.5c-0.5,0-0.9-0.4-0.9-0.9V15.5z M156.4,44.4c3,0,5.3-2.3,5.3-5.3
		c0-3-2.8-5.1-6-5.1h-6.7v10.5H156.4z M155.6,29.5c3.1,0,5-2.3,5-5.2c0-3-1.9-5-5-5H149v10.3H155.6z"/>
	<path id="XMLID_31_" class="st4" d="M189.6,14.1c9.8,0,17.6,7.9,17.6,17.7s-7.8,17.6-17.6,17.6S172,41.6,172,31.8
		S179.8,14.1,189.6,14.1z M189.6,44.5c7,0,12.7-5.7,12.7-12.7c0-7-5.7-12.8-12.7-12.8c-7,0-12.7,5.8-12.7,12.8
		C176.9,38.8,182.6,44.5,189.6,44.5z"/>
	<path id="XMLID_34_" class="st4" d="M211.3,15.8c-0.2-0.7,0.2-1.2,0.9-1.2h2.1c0.4,0,0.8,0.3,0.9,0.7l6.8,25.4h0.2l8.2-26
		c0.1-0.3,0.4-0.5,0.8-0.5h0.9c0.4,0,0.7,0.2,0.8,0.5l8.3,26h0.2l6.7-25.4c0.1-0.3,0.5-0.7,0.9-0.7h2.1c0.7,0,1.1,0.5,0.9,1.2
		l-9.3,32.9c-0.1,0.4-0.5,0.7-0.9,0.7h-0.8c-0.3,0-0.7-0.2-0.8-0.5l-8.5-26.5h-0.2L223,48.9c-0.1,0.3-0.5,0.5-0.8,0.5h-0.8
		c-0.4,0-0.8-0.3-0.9-0.7L211.3,15.8z"/>
	<path id="XMLID_38_" class="st4" d="M258.5,15.5c0-0.5,0.4-0.9,0.9-0.9h19.3c0.5,0,0.9,0.4,0.9,0.9V17c0,0.5-0.4,0.9-0.9,0.9h-16.5
		v12h14.1c0.5,0,0.9,0.4,0.9,0.9v1.4c0,0.5-0.4,0.9-0.9,0.9h-14.1v12.5h16.5c0.5,0,0.9,0.4,0.9,0.9V48c0,0.5-0.4,0.9-0.9,0.9h-19.3
		c-0.5,0-0.9-0.4-0.9-0.9V15.5z"/>
	<path id="XMLID_40_" class="st4" d="M287.5,15.5c0-0.5,0.4-0.9,0.9-0.9h10.7c6,0,10,3.9,10,9c0,3.8-2.5,6.5-4.8,7.8
		c2.6,1.1,5.9,3.5,5.9,8c0,5.5-4.4,9.5-10.7,9.5h-11.2c-0.5,0-0.9-0.4-0.9-0.9V15.5z M300,45.6c3.6,0,6.2-2.7,6.2-6.2
		c0-3.5-3.2-6-7-6h-8.1v12.2H300z M299.2,30c3.8,0,5.9-2.7,5.9-6.1c0-3.5-2.1-5.9-5.9-5.9h-8v12H299.2z"/>
</g>
<g id="XMLID_2_">
	<path id="XMLID_44_" class="st4" d="M322.9,13.5c4.6,0,8.3,3.8,8.3,8.3s-3.8,8.3-8.3,8.3c-4.6,0-8.3-3.7-8.3-8.3
		S318.3,13.5,322.9,13.5z M322.9,28.8c3.8,0,6.9-3.1,6.9-6.9c0-3.9-3.1-6.9-6.9-6.9c-3.8,0-6.9,3.1-6.9,6.9
		C315.9,25.7,319,28.8,322.9,28.8z M320,18c0-0.2,0.2-0.4,0.4-0.4h3.3c1.4,0,2.9,0.9,2.9,2.6s-1.2,2.4-1.9,2.5
		c0.5,0.9,0.9,1.8,1.4,2.7c0.2,0.3-0.1,0.6-0.4,0.6h-0.8c-0.2,0-0.3-0.2-0.4-0.3l-1.3-2.9h-1.7v2.8c0,0.2-0.2,0.4-0.4,0.4h-0.6
		c-0.3,0-0.4-0.2-0.4-0.4V18z M323.7,21.5c0.9,0,1.4-0.6,1.4-1.3c0-0.8-0.5-1.3-1.4-1.3h-2.3v2.6H323.7z"/>
</g>
</svg>
