<?xml version="1.0" encoding="UTF-8"?>
<svg width="113px" height="109px" viewBox="0 0 113 109" version="1.1" xmlns="http://www.w3.org/2000/svg" xmlns:xlink="http://www.w3.org/1999/xlink">
    <!-- Generator: Sketch 42 (36781) - http://www.bohemiancoding.com/sketch -->
    <title>Manager</title>
    <desc>Created with Sketch.</desc>
    <defs>
        <radialGradient cx="48.8893569%" cy="100%" fx="48.8893569%" fy="100%" r="100%" id="radialGradient-1">
            <stop stop-color="#90DFEA" offset="0%"></stop>
            <stop stop-color="#83CCE0" offset="100%"></stop>
        </radialGradient>
        <polygon id="path-2" points="86.6930235 47.0421053 0.619309184 47.0421053 0.619309184 0.615563158 86.6930235 0.615563158"></polygon>
    </defs>
    <g id="Page-1" stroke="none" stroke-width="1" fill="none" fill-rule="evenodd">
        <g id="Ad-Resa---Landing" transform="translate(-1054.000000, -1981.000000)">
            <g id="03---Why-Us" transform="translate(150.000000, 1843.000000)">
                <g id="Items" transform="translate(0.000000, 118.000000)">
                    <g id="3" transform="translate(780.000000, 20.000000)">
                        <g id="Manager" transform="translate(124.000000, 0.000000)">
                            <g id="Group-3" transform="translate(11.530612, 61.936324)">
                                <mask id="mask-3" fill="white">
                                    <use xlink:href="#path-2"></use>
                                </mask>
                                <g id="Clip-2"></g>
                                <path d="M43.6561663,0.615563158 C19.8881153,0.615563158 0.619309184,11.0084263 0.619309184,23.8291211 C0.619309184,36.6498158 19.8881153,47.0426789 43.6561663,47.0426789 C67.4242173,47.0426789 86.6930235,36.6498158 86.6930235,23.8291211 C86.6930235,11.0084263 67.4242173,0.615563158 43.6561663,0.615563158" id="Fill-1" fill="#B4C2CA" mask="url(#mask-3)"></path>
                            </g>
                            <path d="M2.10906429,81.0355337 L24.4115745,68.3972705 C26.8422276,67.2912074 30.3221663,66.4111758 32.7989418,67.6939337 C35.0554827,68.8631021 38.7741051,71.2553653 40.4183704,72.1881758 C41.6671357,72.8972495 46.0014929,75.4811232 43.3021765,76.9417232 C35.3598908,81.2386179 27.4994724,86.0713337 19.4349622,90.4370705 C17.9106153,91.2631758 15.6782888,91.5614916 13.3364214,91.3675863 C11.0049316,91.1748284 8.61232959,90.4990284 6.73053367,89.4101758 C5.39067653,88.6345547 4.07272755,87.8704074 2.77668673,87.1200284 C1.02749286,86.1057547 0.0992785714,84.9079021 0.00818673469,83.7995442 C-0.0817520408,82.7164284 0.617003061,81.7136284 2.10906429,81.0355337" id="Fill-4" fill="#B4C2CA"></path>
                            <path d="M30.0991643,73.0487021 C29.0337357,72.9431442 26.6434398,71.7315232 22.9974602,71.21406 C21.5665112,71.0109758 19.5740214,71.4091126 20.2128173,73.4640495 C21.0695418,76.2177337 23.5728378,78.2256284 26.0288582,79.1974495 C26.8994194,79.5428074 27.9948276,79.6231232 29.039501,80.1187863 C29.84895,80.5020074 30.0265214,81.1365021 30.6284194,81.5633232 C31.9429092,82.4938389 33.4591847,82.4020495 34.53845,82.0509547 C35.8333378,81.6310179 36.3072459,81.1135547 36.6174194,79.6300074 C36.9010724,78.2680811 36.9552663,75.8058284 36.6012765,74.8420389 C36.1089194,72.5713968 30.7506439,72.3545442 30.0991643,73.0487021" id="Fill-6" fill="#54ABC8"></path>
                            <path d="M20.5507796,71.6851695 C20.1368306,72.0431484 19.9477286,72.6099484 20.2129327,73.4635905 C21.0696571,76.2172747 23.5729531,78.2263168 26.0289735,79.1981379 C26.8995347,79.5423484 27.9949429,79.6226642 29.0396163,80.1183274 C29.8490653,80.5026958 30.0266367,81.1371905 30.6285347,81.5628642 C31.9430245,82.4945274 33.4593,82.4015905 34.5385653,82.0516432 C35.8334531,81.6305589 36.3073612,81.1142432 36.6175347,79.6295484 C36.6936367,79.2646853 36.7512898,78.8206537 36.7893408,78.3467905 C35.7896367,79.0960221 34.8141469,79.33238 33.8905449,79.3128747 C32.2785653,79.2796011 31.3907082,78.3961274 29.4247388,77.6273905 C28.1321571,77.1225484 26.6181878,76.7198221 25.0246571,76.0646747 C22.592851,75.0653168 20.3224735,73.6758537 20.5507796,71.6851695" id="Fill-8" fill="#4597B4"></path>
                            <path d="M20.423251,71.8098884 C19.745251,72.5671516 20.1868735,73.8533516 20.5777612,74.6565095 C21.6443429,76.8479832 23.9274041,78.5082253 26.0282816,79.3400674 C26.8999959,79.6842779 27.9792612,79.8793305 29.0239347,80.3749937 C29.8333837,80.7582147 29.9971184,81.2928884 30.5978633,81.7197095 C31.9135061,82.6502253 33.5197204,82.58712 34.5989857,82.2360253 C35.8223837,81.8390358 36.2593939,81.1907726 36.5649551,79.8690042 C36.2547816,80.5344779 35.7831796,80.9349095 34.9287612,81.2125726 C33.8494959,81.56252 32.2432816,81.6267726 30.9287918,80.6951095 C30.3268939,80.2694358 30.1643122,79.7347621 29.3548633,79.3503937 C28.3101898,78.8547305 27.0798735,78.7457305 26.2081592,78.40152 C23.7532918,77.4296989 21.0989449,75.6914358 20.2433735,72.9377516 C20.1718837,72.7071305 20.1027,72.2493305 20.423251,71.8098884" id="Fill-10" fill="#FEE6B6"></path>
                            <path d="M36.5059184,74.8513326 C36.0988878,73.4928484 36.7226939,70.3880695 37.0628469,66.7681221 L29.8562143,64.8967642 C30.3866224,69.0169642 30.4569592,71.6237853 29.7985612,73.7751011 C30.2667041,76.4668274 35.2225612,77.9584063 36.5059184,74.8513326" id="Fill-12" fill="#EFAC83"></path>
                            <path d="M36.5059184,74.8513326 C36.0988878,73.4928484 36.7226939,70.3880695 37.0628469,66.7681221 L34.0383673,66.1726379 L33.5298673,76.5827116 C34.767102,76.6549958 35.9639796,76.1639221 36.5059184,74.8513326" id="Fill-14" fill="#E49E75"></path>
                            <path d="M28.1345786,72.4880979 C27.9892929,72.6957716 27.8555378,72.9321295 27.7356194,73.1960242 C27.5511296,73.5998979 27.3954663,74.0691716 27.2732418,74.5946663 L27.6191602,74.6738347 C27.7367724,74.1724347 27.8843643,73.7261084 28.0596296,73.34174 C28.1876194,73.0606347 28.331752,72.8139505 28.4885684,72.6051295 L28.1345786,72.4880979 Z" id="Fill-16" fill="#FEE6B6"></path>
                            <path d="M27.2044041,72.1867989 C27.0660367,72.3875884 26.9392,72.6159147 26.8238939,72.8683358 C26.6394041,73.2722095 26.4837408,73.7414832 26.3615163,74.2658305 L26.7085878,74.3449989 C26.8250469,73.8447463 26.9726388,73.3972726 27.1479041,73.0140516 C27.2724347,72.7421253 27.409649,72.5034726 27.5595469,72.2992411 C27.4442408,72.2625253 27.3254755,72.2246621 27.2044041,72.1867989" id="Fill-18" fill="#FEE6B6"></path>
                            <path d="M26.3177,71.9230189 C26.1885571,72.1157768 26.0686388,72.3326295 25.959098,72.5712821 C25.7746082,72.9751558 25.620098,73.4444295 25.4978735,73.9687768 L25.8437918,74.0479453 C25.9614041,73.5476926 26.1089959,73.1002189 26.2842612,72.7169979 C26.4030265,72.4553979 26.5344755,72.2247768 26.6774551,72.0262821 C26.5609959,71.9918611 26.4399245,71.95744 26.3177,71.9230189" id="Fill-20" fill="#FEE6B6"></path>
                            <path d="M25.4776949,71.6996263 C25.3508582,71.8889421 25.234399,72.1023526 25.1271643,72.3364158 C24.9426745,72.7402895 24.7870112,73.2095632 24.6647867,73.7350579 L25.0107051,73.8130789 C25.1283173,73.3128263 25.2759092,72.8665 25.4511745,72.4821316 C25.5699398,72.2216789 25.7013888,71.9910579 25.8443684,71.7937105 C25.72445,71.7615842 25.6022255,71.7306053 25.4776949,71.6996263" id="Fill-22" fill="#FEE6B6"></path>
                            <path d="M24.4623092,71.4688905 C24.3631459,71.6283747 24.270901,71.8039221 24.1844214,71.9932379 C23.9999316,72.3971116 23.8442684,72.8652379 23.7220439,73.3907326 L24.0679622,73.4699011 C24.1855745,72.9685011 24.3331663,72.5221747 24.5084316,72.1378063 C24.608748,71.9198063 24.7171357,71.7224589 24.8335949,71.5480589 C24.7113704,71.5216695 24.5879929,71.49528 24.4623092,71.4688905" id="Fill-24" fill="#FEE6B6"></path>
                            <path d="M37.3627582,67.64758 C35.6343194,70.3152116 29.5680643,69.0152432 28.9776969,65.70738 C28.6375439,63.5847484 38.4051255,64.4510116 37.3627582,67.64758" id="Fill-26" fill="#763616"></path>
                            <path d="M27.2877704,46.1575989 C28.6310867,54.6825463 28.9458724,58.7947147 29.3240765,67.0855989 C29.1661071,69.6281674 32.5099847,70.73882 33.2606276,69.9849989 C34.5889541,70.1135042 35.9887704,69.9861463 36.7578622,69.4296726 C37.1014745,65.9118411 37.8544235,52.2329147 37.6733929,49.0214305 C37.525801,46.3859253 36.6333316,43.8399147 35.943801,41.4533884 C32.5226684,39.0588305 26.5509643,41.4843674 27.2877704,46.1575989" id="Fill-28" fill="#406683"></path>
                            <path d="M27.2877704,46.1575989 C28.6310867,54.6825463 28.9458724,58.7947147 29.3240765,67.0855989 C29.2491276,68.27542 31.4514745,69.3390305 32.2862908,69.8576411 C31.9472908,64.5177884 31.4941378,57.8607568 27.8135663,43.1985358 C27.3292806,44.0257884 27.1090459,45.0239989 27.2877704,46.1575989" id="Fill-30" fill="#28536E"></path>
                            <path d="M37.1030888,71.6011821 C37.1676602,70.9402979 37.2783541,68.8888032 37.3625276,67.6473505 C35.71365,69.4142979 29.6577724,67.9984453 28.9774663,65.7071505 C28.9647827,66.4724453 28.8506296,68.3082347 28.82065,69.2272768 C28.5981092,72.2322347 35.0275786,74.3147084 37.1030888,71.6011821" id="Fill-32" fill="#9A4B21"></path>
                            <path d="M37.1620102,53.8778968 C37.3072959,57.7778021 36.9463878,59.9268232 36.6131531,67.4994547 C35.8809592,68.1328021 34.7728673,68.3370337 33.5656122,67.9056232 C33.6128878,61.9014442 33.4802857,57.38196 32.411398,52.0788232 C33.5702245,52.7638021 35.5442653,53.7700442 37.1620102,53.8778968" id="Fill-34" fill="#507799"></path>
                            <path d="M21.7578041,78.6771179 C20.6923755,78.57156 18.3020796,77.3587916 14.6561,76.8424758 C13.225151,76.6393916 11.2326612,77.0375284 11.8714571,79.0924653 C12.7281816,81.8461495 15.2314776,83.8540442 17.687498,84.8258653 C18.5580592,85.1712232 19.6534673,85.2515389 20.6981408,85.7472021 C21.5075898,86.1304232 21.6851612,86.7649179 22.2870592,87.1917389 C23.601549,88.1222547 25.1189776,88.0304653 26.1970898,87.6793705 C27.4931306,87.2594337 27.9670388,86.7419705 28.2760592,85.2584232 C28.5597122,83.8964968 28.6139061,81.4342442 28.2599163,80.4693074 C27.7687122,78.1998126 22.4104367,77.9818126 21.7578041,78.6771179" id="Fill-36" fill="#42A4FA"></path>
                            <path d="M12.2094194,77.3134705 C11.7954704,77.6703021 11.6063684,78.2382495 11.8715724,79.0918916 C12.7282969,81.8455758 15.2315929,83.8546179 17.6876133,84.8264389 C18.5581745,85.1706495 19.6535827,85.2509653 20.6982561,85.7466284 C21.5077051,86.1309968 21.6852765,86.7654916 22.2871745,87.1911653 C23.6016643,88.1228284 25.1190929,88.0298916 26.1972051,87.6799442 C27.4920929,87.25886 27.966001,86.7425442 28.2761745,85.2578495 C28.3522765,84.8929863 28.4110827,84.4489547 28.4479806,83.9750916 C27.4482765,84.7243232 26.4727867,84.9606811 25.5491847,84.9411758 C23.9372051,84.9067547 23.049348,84.0244284 21.0833786,83.2556916 C19.7907969,82.7508495 18.2768276,82.3481232 16.6832969,81.6929758 C14.2514908,80.6936179 11.9811133,79.3053021 12.2094194,77.3134705" id="Fill-38" fill="#3C8ED6"></path>
                            <path d="M12.082352,77.4381895 C11.403199,78.1954526 11.8448214,79.4816526 12.2368622,80.2848105 C13.3034439,82.4762842 15.585352,84.1365263 17.6873827,84.9683684 C18.5579439,85.3125789 19.6383622,85.5076316 20.6830357,86.0021474 C21.4924847,86.3865158 21.6550663,86.9211895 22.2569643,87.3480105 C23.5714541,88.2796737 25.1788214,88.2154211 26.2569337,87.8643263 C27.4814847,87.4673368 27.9173418,86.8190737 28.2229031,85.4973053 C27.9127296,86.1627789 27.4422806,86.5632105 26.5878622,86.8408737 C25.5085969,87.1908211 23.9023827,87.2550737 22.5878929,86.3234105 C21.9859949,85.8977368 21.8234133,85.3619158 21.0139643,84.9786947 C19.9692908,84.4830316 18.7389745,84.3740316 17.8672602,84.0298211 C15.4112398,83.058 12.7580459,81.3197368 11.9024745,78.5660526 C11.8298316,78.3354316 11.761801,77.8776316 12.082352,77.4381895" id="Fill-40" fill="#FEE6B6"></path>
                            <path d="M28.1647888,80.4794042 C27.7577582,79.12092 28.3815643,76.0172884 28.7217173,72.3961937 L21.5150847,70.5248358 C22.0454929,74.6450358 22.1158296,77.2530042 21.4574316,79.4031726 C21.9255745,82.0948989 26.8814316,83.5864779 28.1647888,80.4794042" id="Fill-42" fill="#EFAC83"></path>
                            <path d="M28.1647888,80.4794042 C27.7577582,79.12092 28.3815643,76.0172884 28.7217173,72.3961937 L25.6972378,71.8007095 L25.1887378,82.2107832 C26.4259724,82.2830674 27.62285,81.7919937 28.1647888,80.4794042" id="Fill-44" fill="#E49E75"></path>
                            <path d="M19.793449,78.1162842 C19.6481633,78.3239579 19.5144082,78.5603158 19.3944898,78.8253579 C19.21,79.2280842 19.0543367,79.6973579 18.9321122,80.2228526 L19.2780306,80.3020211 C19.3956429,79.8006211 19.5432347,79.3542947 19.7185,78.9699263 C19.8464898,78.6888211 19.9906224,78.4421368 20.1462857,78.2333158 L19.793449,78.1162842 Z" id="Fill-46" fill="#FEE6B6"></path>
                            <path d="M18.8632745,77.8152147 C18.7249071,78.0160042 18.5980704,78.2443305 18.4827643,78.4967516 C18.2982745,78.9006253 18.1426112,79.3698989 18.0203867,79.8942463 L18.3674582,79.9734147 C18.4839173,79.4720147 18.6315092,79.0256884 18.8067745,78.6424674 C18.9313051,78.3705411 19.0685194,78.1307411 19.2184173,77.9276568 C19.1031112,77.8909411 18.9843459,77.8530779 18.8632745,77.8152147" id="Fill-48" fill="#FEE6B6"></path>
                            <path d="M17.9765704,77.5510905 C17.8474276,77.7438484 17.7275092,77.9607011 17.6179684,78.1993537 C17.4346316,78.6032274 17.2789684,79.0725011 17.1567439,79.5968484 L17.5026622,79.6760168 C17.6191214,79.1757642 17.7678663,78.7282905 17.9431316,78.3450695 C18.0618969,78.0834695 18.1933459,77.8528484 18.3363255,77.6555011 C18.2187133,77.62108 18.0987949,77.5855116 17.9765704,77.5510905" id="Fill-50" fill="#FEE6B6"></path>
                            <path d="M17.1363347,77.3279274 C17.009498,77.5172432 16.8930388,77.7306537 16.7858041,77.9647168 C16.6013143,78.3685905 16.445651,78.8378642 16.3234265,79.3633589 L16.670498,79.44138 C16.7869571,78.9411274 16.934549,78.4948011 17.1098143,78.1104326 C17.2285796,77.84998 17.3600286,77.6193589 17.5030082,77.4220116 C17.3830898,77.3898853 17.2608653,77.3589063 17.1363347,77.3279274" id="Fill-52" fill="#FEE6B6"></path>
                            <path d="M16.120949,77.0973063 C16.0217857,77.2567905 15.9295408,77.4323379 15.8430612,77.6205063 C15.6585714,78.02438 15.5029082,78.4936537 15.3806837,79.0191484 L15.7277551,79.0983168 C15.8442143,78.5969168 15.9918061,78.1505905 16.1670714,77.7662221 C16.2673878,77.5482221 16.3757755,77.3508747 16.4922347,77.1764747 C16.3700102,77.1489379 16.2466327,77.1225484 16.120949,77.0973063" id="Fill-54" fill="#FEE6B6"></path>
                            <path d="M29.0217439,73.2759958 C27.2933051,75.9436274 21.22705,74.6436589 20.6366827,71.3357958 C20.2965296,69.2131642 30.0641112,70.0794274 29.0217439,73.2759958" id="Fill-56" fill="#763616"></path>
                            <path d="M18.9465255,51.7860147 C20.2898418,60.3109621 20.6046276,64.4231305 20.9816786,72.7140147 C20.8248622,75.2554358 24.1687398,76.3672358 24.9193827,75.6134147 C26.2477092,75.74192 27.6475255,75.6145621 28.4154643,75.0569411 C28.7602296,71.5402568 29.5131786,57.8601832 29.332148,54.6498463 C29.1845561,52.0143411 28.2920867,49.4683305 27.6025561,47.0818042 C24.1814235,44.6872463 18.2097194,47.1127832 18.9465255,51.7860147" id="Fill-58" fill="#406683"></path>
                            <path d="M18.9465255,51.7860147 C20.2898418,60.3109621 20.6046276,64.4231305 20.9816786,72.7140147 C20.9078827,73.9038358 23.1102296,74.9674463 23.9450459,75.4860568 C23.6060459,70.1462042 23.1528929,63.4891726 19.4734745,48.8258042 C18.9880357,49.6530568 18.767801,50.6512674 18.9465255,51.7860147" id="Fill-60" fill="#28536E"></path>
                            <path d="M28.7617286,77.2294832 C28.8263,76.5685989 28.9369939,74.5171042 29.0211673,73.2756516 C27.3722898,75.0425989 21.3164122,73.6267463 20.6361061,71.3354516 C20.6234224,72.1007463 20.5092694,73.9365358 20.4792898,74.8555779 C20.256749,77.8605358 26.6862184,79.9430095 28.7617286,77.2294832" id="Fill-62" fill="#9A4B21"></path>
                            <path d="M28.8211112,59.5063126 C28.9663969,63.4062179 28.6054888,65.5540916 28.2722541,73.1278705 C27.5400602,73.7612179 26.4319684,73.9654495 25.2247133,73.5340389 C25.2708357,67.52986 25.1393867,63.0103758 24.070499,57.7072389 C25.2293255,58.3922179 27.2022133,59.3973126 28.8211112,59.5063126" id="Fill-64" fill="#507799"></path>
                            <path d="M68.4163112,45.9742495 C109.514872,66.41806 93.6844949,92.5608495 75.0994541,98.4479968 C50.7318112,106.167492 9.96302551,93.0863442 16.5712194,63.9087653 C21.1315765,43.7724495 57.8219847,40.7043863 68.4163112,45.9742495" id="Fill-66" fill="#0D5F77"></path>
                            <path d="M29.6207592,48.7794505 C27.1243816,47.1639558 27.1751163,45.4383137 27.4195653,44.2048926 C27.9084633,41.7357558 30.1869122,40.4908611 33.2609735,40.4943032 C41.2724429,40.5011874 51.9105857,45.92824 55.1979633,47.6412611 L61.2100245,45.3098084 C63.7213918,53.1451874 61.0405245,65.9394926 50.7217796,62.1956295 C45.2966265,60.2278926 32.5760551,50.6921137 29.6207592,48.7794505" id="Fill-68" fill="#406683"></path>
                            <path d="M44.5047041,53.3774147 C42.9953469,52.5077095 29.2254898,48.3634147 27.6423367,46.8821621 C27.0508163,46.3302779 27.2306939,44.8134568 27.3506122,44.4405621 C31.6734388,44.8191937 41.4179592,47.3858568 47.2351531,50.1762568 L44.5047041,53.3774147 Z" id="Fill-70" fill="#28536E"></path>
                            <path d="M20.6545551,54.2550368 C18.3634224,52.9699842 18.3807184,49.6334368 20.2336878,47.4224579 C21.3175653,46.1282263 23.4242082,45.5247105 26.1292898,45.9939842 C30.4129122,46.7386263 44.5240755,52.4353105 48.5678612,55.3117632 L57.0313306,46.7237105 C57.8327082,50.3643105 58.0483306,56.8687421 57.2538714,60.9407526 C56.7672796,63.4385737 56.3302694,64.1969842 54.1602082,65.4648263 C52.7304122,66.3012579 50.9535449,67.0711421 49.9711367,67.2639 C48.2507694,67.6012263 46.4381571,67.4245316 44.6566776,66.5754789 C39.6304837,64.1774789 23.6110041,55.9129842 20.6545551,54.2550368" id="Fill-72" fill="#406683"></path>
                            <path d="M43.3018306,52.2900537 C45.3277592,53.2790853 47.1888,54.3312221 48.5678612,55.3110747 L57.0313306,46.7230221 C57.8327082,50.3647695 58.0471776,56.8692011 57.2538714,60.9400642 C56.7672796,63.4378853 56.3302694,64.1962958 54.1602082,65.4652853 C52.7304122,66.3005695 50.9535449,67.0704537 49.9711367,67.2632116 C48.2507694,67.6005379 46.4381571,67.4249905 44.6566776,66.5747905 C41.9435245,65.2805589 29.1157184,58.9184011 25.3636571,56.7590537 C23.6905653,55.3041905 21.9390653,51.4008432 22.1800551,51.4868958 C28.1229327,56.1784853 37.0822184,58.9333168 40.4664531,60.67158 C40.7224327,59.7227063 40.6555551,54.1006011 43.3018306,52.2900537" id="Fill-74" fill="#28536E"></path>
                            <path d="M23.278,50.5739347 C21.0745,49.5562189 22.1583776,47.0561032 23.5478163,46.7164821 C26.5192551,45.9924926 37.5229184,50.5762295 41.6047551,52.2972821 C40.2602857,53.3792505 39.6318673,55.8713347 39.3632041,57.6027137 C36.2003571,56.2843874 26.5769082,52.09764 23.278,50.5739347" id="Fill-76" fill="#507799"></path>
                            <path d="M30.1577398,44.3391347 C34.2718622,45.1904821 37.2744337,45.8984084 41.6295459,47.1685453 C41.5765051,45.4406084 41.4173827,44.1440821 41.4727296,42.4161453 C35.9011378,41.2079663 31.9599745,40.4897137 29.8383418,41.9216295 C28.8985969,42.5549768 28.8017398,44.0580295 30.1577398,44.3391347" id="Fill-78" fill="#507799"></path>
                            <polygon id="Fill-80" fill="#D0C7C6" points="42.8609 25.7554379 42.9531449 24.9190063 29.8428388 30.3850695 28.7508898 31.3557432 28.6586449 32.1921747"></polygon>
                            <polygon id="Fill-82" fill="#E0D7D6" points="16.7460235 19.3683821 28.6617582 32.1971084 28.7505439 31.3560874 18.2980439 19.6644032 16.8348092 18.5262137"></polygon>
                            <polygon id="Fill-84" fill="#F9F6F5" points="31.0370643 12.0899358 42.953952 24.9186621 28.7505439 31.3565463 16.8348092 18.5266726"></polygon>
                            <polygon id="Fill-86" fill="#181322" points="30.9836776 12.9368084 18.0924531 18.7792084 29.0211673 30.5454716 41.9123918 24.7019242"></polygon>
                            <path d="M38.4159643,23.0419116 C30.7204337,24.7939432 30.8922398,16.8507116 25.3494745,17.4622589 C22.6028827,17.7651642 20.5930969,19.7914168 21.8868316,22.5554274 L22.1451173,23.09928 C18.8819541,20.5716274 22.1185969,16.2139221 26.3284235,16.3022695 C31.7478112,16.4170063 32.0176276,22.9317642 37.8498112,21.35528 C38.3179541,21.1992379 38.824148,21.4516589 38.9809643,21.9174905 C39.1366276,22.3833221 38.8841071,22.8870168 38.4159643,23.0419116" id="Fill-88" fill="#4F3594"></path>
                            <path d="M22.1451173,22.9991147 C20.70725,20.3877042 24.2805867,17.5594411 27.5714235,20.5747253 C30.1139235,22.9038832 31.9795765,25.5095568 34.6131684,25.19862 C35.8377194,25.0540516 37.6999133,24.2772832 38.9878827,22.5493463 C38.0135459,24.8727674 36.5906684,26.2071568 34.2072908,26.5949674 C30.4471582,27.2076621 27.8354745,22.9956726 26.1646888,21.2780621 C24.2056378,19.2644305 21.800352,20.6997884 22.1451173,22.9991147" id="Fill-90" fill="#2B9FA4"></path>
                            <path d="M33.6801112,21.1333789 L34.4422847,20.7880211 L35.1906214,21.5946211 L34.2808561,22.0076737 L33.5313663,21.2010737 L33.6801112,21.1333789 Z M34.3846316,21.0725684 L33.9268663,21.2802421 L34.3373561,21.7219789 L34.7962745,21.5154526 L34.3846316,21.0725684 Z" id="Fill-92" fill="#C83636"></path>
                            <polygon id="Fill-94" fill="#C83636" points="34.0244153 21.1854695 31.6986908 19.0341537 31.8601194 18.8609011 34.1858439 21.0122168"></polygon>
                            <polygon id="Fill-96" fill="#C83636" points="36.0856276 23.0989358 34.6558316 21.77602 34.8172602 21.6027674 36.2470561 22.9256832"></polygon>
                            <path d="M47.6622469,19.1609379 C46.4503796,17.7622958 45.2765633,16.6149274 44.0012776,15.3941274 C42.9566041,14.3936221 42.6798694,14.4750853 41.3296347,14.3534642 C39.8444918,14.2192221 39.5631449,14.3752642 38.3754918,14.9856642 C37.342349,15.5157484 36.569798,16.4577379 36.3899204,16.9981484 C35.8156959,18.7169063 39.4951143,18.3807274 39.8329612,18.4598958 C40.6354918,19.4856432 40.9652673,20.3427274 42.1390837,20.7867589 C44.0819918,21.5233695 44.7945837,21.4292853 45.6812878,22.5766537 L47.6622469,19.1609379 Z" id="Fill-98" fill="#EFAC83"></path>
                            <path d="M43.4087194,17.8146158 C42.0400357,16.7200263 41.9155051,16.4308895 40.2251173,15.5061105 C39.2726888,15.3305632 38.711148,15.4636579 37.9674235,15.2261526 C37.4623827,15.5141421 36.716352,16.1899421 36.4200153,16.9380263 C36.0591071,17.8501842 36.7786173,18.8128263 37.2675153,18.7956158 C38.4505561,18.7543105 39.3026684,18.3355211 39.8330765,18.4605842 C40.6356071,19.4851842 40.9653827,20.3422684 42.1380459,20.7874474 C44.0821071,21.5229105 44.794699,21.4288263 45.6814031,22.5761947 L46.9347806,20.4145526 L43.4087194,17.8146158 Z" id="Fill-100" fill="#E49E75"></path>
                            <path d="M56.9065694,27.0562095 C53.1971714,24.1556621 50.6984878,21.9377989 46.9383551,18.3866937 C47.0236816,20.16282 46.6327939,21.4765568 44.5999469,21.5901463 C46.4021816,22.6594937 50.9371714,30.9343147 53.2721204,32.3088621 C54.8195286,33.2382305 57.180998,33.30822 58.1115184,31.8866305 C58.8944469,30.6910726 58.5854265,28.6694095 56.9065694,27.0562095" id="Fill-102" fill="#EFAC83"></path>
                            <path d="M46.2347571,21.0147411 C45.873849,21.3440358 45.3480531,21.5482674 44.6008694,21.5895726 C46.401951,22.65892 50.9369408,30.9337411 53.2730429,32.3082884 C54.819298,33.2376568 57.1807673,33.3076463 58.1112878,31.8872042 C53.7308082,28.3751095 51.8351755,27.0831726 46.2347571,21.0147411" id="Fill-104" fill="#E49E75"></path>
                            <path d="M44.3511163,12.3980042 C41.1075551,15.6255516 36.8227796,20.13012 34.3171776,21.3279726 C35.2315551,19.2420568 40.1205347,14.7351937 43.4205959,11.5168253 C44.2369633,10.7205516 45.1063714,11.6453305 44.3511163,12.3980042" id="Fill-106" fill="#D0C7C6"></path>
                            <path d="M45.6442745,20.5523516 C43.2551316,21.2430674 43.507652,19.8776989 42.3453663,18.4343095 C41.8772235,18.3149832 41.4828765,18.0143726 41.0055092,17.7309726 C39.2862949,17.7630989 38.9323051,17.0402568 38.9934173,16.20612 C39.5561112,16.1097411 40.6653561,15.9043621 41.153101,15.8699411 C43.9192949,16.4757516 45.5289684,16.3392147 47.537601,19.3407305 L46.5794071,21.3623937 L45.6442745,20.5523516 Z" id="Fill-108" fill="#EFAC83"></path>
                            <path d="M37.9306408,15.0168726 L36.5239061,16.7035042 C37.3852429,17.3770095 38.2892429,16.5554937 38.7988959,15.7787253 L39.1551918,15.6674305 L40.6345694,14.2274832 C40.230998,14.2733779 39.667151,14.3548411 39.2474367,14.4397463 C38.7262531,14.5453042 38.2777122,14.6003779 37.9306408,15.0168726" id="Fill-110" fill="#EFAC83"></path>
                            <path d="M64.1483704,17.4468842 C68.8125031,20.1810632 67.2708602,24.7888947 65.7672684,29.2682211 C64.0630439,34.3476211 63.3250847,34.4715368 62.4014827,38.4850316 C61.4052378,42.8094632 62.7105031,46.3009053 62.6493908,50.5805895 C62.5179418,59.8582105 56.8310439,69.4628316 46.756748,68.0710737 C44.4575439,67.7521053 41.9507888,66.3236316 41.3385133,64.3054105 C40.5832582,61.8167684 41.0306459,58.1279789 41.145952,56.4034842 C39.7196153,57.3730105 40.2961459,55.3582316 40.7769724,53.7622421 C41.6832786,50.7492526 42.4765847,48.2514316 42.6968194,44.6395158 C43.7265031,37.6715474 40.0113398,29.7202842 42.9551051,24.5009053 C43.5097276,23.5153158 44.2961153,23.1114421 45.1966561,22.5779158 C46.2447888,21.9583368 49.5805949,20.2349895 53.4295133,19.0474632 C57.982952,17.6430842 63.1221459,16.8445158 64.1483704,17.4468842" id="Fill-112" fill="#F26F6C"></path>
                            <path d="M46.6297959,68.0514537 C44.3651837,67.6992116 41.9402959,66.2868011 41.338398,64.3052958 C40.5831429,61.8166537 41.0305306,58.1278642 41.1458367,56.4033695 C39.7206531,57.3728958 40.2960306,55.3581168 40.7768571,53.7621274 C41.6831633,50.7491379 42.4764694,48.2513168 42.6967041,44.6405484 C43.7263878,37.6714326 40.0112245,29.7201695 42.9549898,24.5007905 C43.3574082,23.7871274 43.880898,23.3775168 44.4816429,23.0034747 C46.2446735,23.1388642 47.2466837,23.1583695 48.2383163,24.8036958 C50.0924388,27.8797905 49.7603571,33.2402958 48.9716633,38.6329274 C48.3340204,42.9998116 47.441551,47.4125905 45.9022143,50.7548747 C42.1236327,59.2419589 39.8325,64.5921379 45.6496939,67.6051274 C45.9517959,67.7611695 46.2781122,67.90918 46.6297959,68.0514537" id="Fill-114" fill="#DC5757"></path>
                            <path d="M52.8462949,16.7035042 C52.6099173,18.0551042 52.0875806,18.8226937 51.6920806,20.66422 C55.1120602,20.6688095 59.5790194,20.8041989 60.1163459,18.2685147 C60.1324888,18.0619884 60.1486316,17.8554621 60.1693867,17.6523779 C60.1682337,17.6294305 60.1682337,17.6053358 60.1670806,17.5800937 L60.1763051,17.5800937 C60.2731622,16.6461358 60.2800806,15.7454516 60.5060806,15.3002726 C63.3253153,9.74356737 54.9563969,12.4295568 52.8462949,16.7035042" id="Fill-116" fill="#E49E75"></path>
                            <path d="M52.8462949,16.7035042 C52.6099173,18.0551042 52.0875806,18.8226937 51.6920806,20.66422 C52.0599071,20.66422 52.4392643,20.6665147 52.8255398,20.6665147 C54.5885704,18.8066305 56.0587235,17.7544937 60.1982133,16.9467463 C60.2996827,16.3294621 60.399999,15.62842 60.5556622,15.1006305 C60.9327133,14.01522 57.6487949,6.97840947 52.8462949,16.7035042" id="Fill-118" fill="#D4916A"></path>
                            <path d="M49.5302061,17.7231705 C50.1563184,17.9801811 53.1692673,17.3709284 53.0989306,17.6508863 C54.0709612,17.0278653 55.2055735,18.5160021 60.2167776,16.4105811 C60.2629,15.96196 60.4035735,15.08996 60.5719204,14.7709916 C61.2084102,13.5708442 62.5897776,12.1882653 62.9910429,10.4075495 C63.6309918,7.56207579 63.1144204,4.48368632 60.3586041,2.59626526 C55.3266449,-0.849282105 49.4079816,2.25090737 48.2422367,7.87301263 C48.0139306,8.96989684 48.9075531,9.49539158 48.9409918,10.4178758 C48.9479102,10.59916 48.7207571,10.8033916 48.5535633,11.2164442 C48.322951,11.7878337 48.7634204,17.4076442 49.5302061,17.7231705" id="Fill-120" fill="#D4916A"></path>
                            <path d="M49.6263714,17.7477242 C49.9596061,17.8980295 51.2787082,17.6937979 52.2403612,17.2486189 C52.8468714,16.9686611 53.2608204,16.4064505 53.3553714,16.3605558 C53.7531776,16.1689453 54.5730041,14.8230821 53.0244429,12.8737032 C51.5139327,10.9748084 60.1803408,15.5092084 60.5723816,14.7703032 C61.2077184,13.5713032 62.5902388,12.1887242 62.990351,10.4068611 C63.6314531,7.56138737 63.1148816,4.48299789 60.3590653,2.59672421 C55.3259531,-0.848823158 49.4084429,2.25136632 48.2415449,7.87232421 C48.0143918,8.97035579 48.9080143,9.49585053 48.9414531,10.4183347 C48.9483714,10.5984716 48.7212184,10.8027032 48.5540245,11.2157558 C48.3234122,11.7882926 48.8699633,17.4081032 49.6263714,17.7477242" id="Fill-122" fill="#E49E75"></path>
                            <path d="M49.4837378,17.7341853 C49.6186459,17.8030274 50.3635235,17.7215642 50.7244316,17.5735537 C51.1153194,17.0951011 51.485452,16.1118063 51.4381765,15.6390905 C51.2559929,13.8262484 50.2320745,12.4161326 50.185952,11.6795221 C50.0890949,10.1248379 50.6621663,10.8637432 49.9495745,9.22415368 C49.4041765,7.96549053 49.9910847,7.72913263 50.1778806,6.60471158 C49.5010337,6.40851158 49.1620337,5.92432211 49.0294316,5.60305895 C48.678901,6.29951158 48.4102378,7.05906947 48.2418908,7.87255368 C48.0135847,8.97058526 48.9083602,9.49493263 48.941799,10.4185642 C48.9475643,10.5987011 48.7215643,10.8029326 48.5543704,11.2159853 C48.3226051,11.7873747 48.7446255,17.3589958 49.4837378,17.7341853" id="Fill-124" fill="#EFAC83"></path>
                            <path d="M52.7321418,12.9541337 C54.3325908,11.2514389 56.3308459,16.1839758 53.5761827,16.3193653 C54.5712745,15.1146284 53.6326827,13.37866 52.7321418,12.9541337" id="Fill-126" fill="#D4916A"></path>
                            <path d="M52.7912939,13.6905147 C52.4857327,13.0032411 52.6840592,12.7313147 53.0023041,12.7863884 C53.3505286,12.8460516 53.8705592,13.3027042 54.1749673,14.0163674 C54.6638653,15.1683253 54.1818857,16.6977674 52.9965388,16.1940726 C53.9847122,16.1837463 53.8117531,15.0088411 53.4658347,14.3009147 C53.2317633,13.8201674 52.8973755,13.4908726 52.7912939,13.6905147" id="Fill-128" fill="#EFAC83"></path>
                            <path d="M53.2658939,13.9790779 C53.0260571,14.5080147 52.9511082,14.8178042 53.0514245,14.9864674 C53.1217612,15.1046463 53.3212408,15.2297095 53.6106592,14.9095937 C53.5956694,14.5550568 53.4480776,14.2360884 53.2658939,13.9790779" id="Fill-130" fill="#D4916A"></path>
                            <path d="M60.4709122,15.4726074 C61.1500653,13.7607337 62.4887694,12.6409021 62.990351,10.4069758 C63.6314531,7.56150211 63.1148816,4.48311263 60.3590653,2.59683895 C56.4040653,-0.110950526 51.9025143,1.22343895 49.5894735,4.64833368 C49.467249,4.86748105 50.9500857,5.44116526 50.5465143,6.52198632 C49.9895857,8.34400737 50.0587694,9.13913368 50.3597184,9.50973368 C51.5277694,10.9473863 51.5612082,11.1607968 51.6626776,13.4624179 L52.2957082,13.9053021 C52.4202388,12.0844284 53.2354531,12.1716284 54.0610449,12.7200705 C55.5012184,13.6781232 56.191902,16.0313758 58.4991776,16.3446074 C59.3651265,16.4616389 60.0708,16.0646495 60.4709122,15.4726074" id="Fill-132" fill="#2C1609"></path>
                            <path d="M51.6498786,12.9461021 C51.5461031,14.0842916 51.5172765,14.8025442 51.0652765,15.4014705 C50.8923173,15.6297968 50.4068786,15.7353547 49.926052,15.8615653 C49.8257357,15.3395126 49.7323378,15.0331653 49.587052,14.6373232 C49.3725827,14.0533126 49.0185929,13.6012495 48.5204704,13.3362074 C48.4916439,13.4830705 48.5250827,13.9879126 48.6161745,14.0670811 C48.852552,14.2736074 48.9182765,14.53406 49.0497255,14.8920389 C49.1857867,15.2626389 49.2238378,15.51506 49.2630418,16.01646 C49.1442765,16.0359653 49.0439602,16.0635021 48.9597867,16.08186 C48.9171235,16.0910389 48.8906031,15.7640389 48.8052765,15.77666 C48.8294908,16.7129126 48.9032867,17.9635442 49.1212153,18.0312389 C49.4002561,18.1195863 50.9695724,17.6881758 51.7640316,17.30266 C52.5930827,16.9010811 52.3290316,16.7312705 52.3394092,15.7250284 C52.3486337,14.8954811 52.2817561,13.9603758 52.33595,13.0711653 L51.6498786,12.9461021 Z" id="Fill-134" fill="#2C1609"></path>
                            <path d="M51.3259837,14.9416053 C51.2591061,15.1045316 51.1749327,15.2571316 51.0653918,15.4017 C50.8924327,15.6288789 50.4069939,15.7355842 49.9250143,15.8606474 C49.825851,15.3385947 49.7324531,15.0333947 49.5871673,14.6375526 C49.372698,14.0535421 49.0187082,13.6014789 48.5205857,13.3364368 C48.4917592,13.4833 48.525198,13.9881421 48.6162898,14.0673105 C48.8526673,14.2738368 48.9172388,14.5342895 49.0498408,14.8911211 C49.185902,15.2628684 49.2239531,15.5152895 49.2631571,16.0155421 C49.1432388,16.0361947 49.0440755,16.0637316 48.959902,16.0820895 C48.9172388,16.0912684 48.8907184,15.7642684 48.8053918,15.7768895 C48.8296061,16.7131421 48.903402,17.9626263 49.1213306,18.0314684 C49.3323408,18.0980158 50.2801571,17.8673947 51.0734633,17.5851421 C51.3144531,16.9196684 51.4735755,15.9845632 51.4389837,15.6392053 C51.4147694,15.3982579 51.3755653,15.1664895 51.3259837,14.9416053" id="Fill-136" fill="#46260E"></path>
                            <path d="M59.3000939,8.86399474 C59.3704306,10.2546053 59.2954816,10.7766579 58.9115122,12.0720368 C58.7316347,11.2792053 58.5655939,10.4749 58.3557367,9.69239474 C58.2865531,9.42964737 58.209298,9.17034211 58.1251245,8.91447895 C58.0190429,10.1123316 57.964849,11.3193632 57.8968184,12.5206579 C57.5405224,11.2723211 57.1565531,10.0171 56.8521449,8.75843684 C56.4243592,9.51799474 56.3943796,11.0439947 56.2779204,11.9917211 C55.9527571,10.8259947 55.6241347,9.72222632 55.4592469,8.51978421 C54.9830327,9.07052105 54.933451,10.4508053 54.8446653,11.2126579 C54.5540939,10.2236263 54.3234816,9.3413 54.1366857,8.31899474 C53.8484204,8.80892105 53.8253592,9.92416316 53.7723184,10.5104684 C53.5370939,9.83237368 53.1727265,8.95348947 53.1219918,8.25933158 C52.6676857,9.1887 52.7241857,10.2224789 52.6942061,11.2264263 C52.4232367,10.2006789 52.0404204,9.04068947 52.0554102,7.98625789 C51.8536245,8.35341579 51.6725939,9.41243684 51.5676653,9.86908947 C51.4604306,9.07511053 51.3312878,8.27195263 51.2851653,7.47338421 C50.8873592,7.97478421 50.5183796,8.89038421 50.4930122,9.57306842 C50.0606143,8.80088947 50.1321041,7.21522632 50.5425939,6.11375263 L50.5898694,5.98524737 L50.7282367,5.9841 C51.542298,5.98065789 52.3563592,5.97606842 53.1704204,5.97147895 C53.7065939,5.96803684 54.2427673,5.96459474 54.7789408,5.96000526 C55.0395327,5.95771053 55.3324102,5.96574211 55.5883898,5.94853158 C55.6956245,5.93705789 55.8259204,5.90493158 55.9331551,5.88427895 C56.1902878,5.83264737 56.4474204,5.77986842 56.7045531,5.72708947 C57.4482776,5.57219474 58.192002,5.41500526 58.9357265,5.25781579 C60.0599612,5.01916316 61.1184714,4.66806842 62.2427061,4.42712105 C64.0172673,7.09016316 63.0210224,9.87138421 62.4813898,11.2665842 C62.4767776,10.3865526 62.5471143,9.44226842 62.3557061,8.58977368 C62.3418694,9.34933158 61.977502,10.3739316 61.7584204,11.1300474 C61.6961551,10.2523105 61.6788592,9.48931053 61.4090429,8.63337368 C61.5347265,9.85187895 61.3767571,10.5873421 60.8394306,11.6968474 C60.8232878,10.5804579 60.8797878,9.69468947 60.4877469,8.56567895 C60.5430939,9.96776316 60.3413082,10.8363211 60.0103796,12.1489105 C59.8443388,11.0543211 59.7105837,9.89547895 59.3000939,8.86399474" id="Fill-138" fill="#4C2C1B"></path>
                            <path d="M62.9182847,8.60480421 C62.0281214,8.04718316 60.0540806,7.56184632 56.4057949,7.55496211 C53.8817439,7.54922526 52.094499,7.09372 50.512499,6.38694105 C48.1302745,5.32447789 48.3182235,2.77846737 49.2302949,1.85598316 C50.9898663,0.0729726316 55.8477133,-0.0853642105 59.1858255,1.34655158 C61.6257031,2.39409895 63.0923969,4.69801474 62.9182847,8.60480421" id="Fill-140" fill="#2C1609"></path>
                            <path d="M62.9182847,8.60480421 C62.0281214,8.04718316 60.0540806,7.56184632 56.4057949,7.55496211 C53.8817439,7.54922526 52.094499,7.09372 50.512499,6.38694105 C48.1302745,5.32447789 48.3182235,2.77846737 49.2302949,1.85598316 C49.3963357,1.68732 49.59005,1.53357263 49.8079786,1.39359368 C50.6935296,5.70196211 52.7851827,4.38363579 57.1956418,5.59525684 C56.5257133,5.03534105 56.8358867,5.12942526 56.2443663,4.81389895 C57.649948,5.21203579 58.6900092,5.05369895 60.306601,5.94635158 C59.7865704,5.53215158 59.6435908,5.27169895 59.3161214,5.05828842 C60.005652,5.18335158 61.4308357,5.51379368 62.4881929,6.93308842 L62.47205,4.87470947 C62.7983663,6.13796211 62.8179684,7.30598316 62.9182847,8.60480421" id="Fill-142" fill="#180A06"></path>
                            <path d="M49.2319092,5.40341684 C50.001001,6.23870105 52.9021031,3.98871158 57.213399,4.47749053 C56.1087663,1.74216421 55.5403071,1.18339579 54.2050622,0.452522105 C52.4650929,-0.500941053 49.6885214,0.125522105 48.909052,1.65725895 C48.1630214,3.12359579 48.6127153,4.73105895 49.2319092,5.40341684" id="Fill-144" fill="#46260E"></path>
                            <path d="M55.1472286,4.19202526 C53.7566367,3.00105684 51.8045041,3.36477263 50.0760653,3.95796211 C51.0273408,2.92762526 53.1512796,3.14677263 54.2005653,3.59768842 C52.745402,2.42622526 51.840249,2.53752 50.1348714,2.87255158 C51.3571163,2.14167789 53.0002286,2.21740421 53.9538102,2.87025684 C52.6208714,1.50603579 52.1077592,1.65175158 50.3101367,1.88122526 C51.520851,1.12625684 53.422249,1.23296211 54.2409224,1.89958316 C53.2400653,0.883014737 52.5032592,0.697141053 50.7886571,0.814172632 C52.2322898,0.268025263 53.3761265,0.234751579 54.6790857,1.40277263 C53.610198,-0.205837895 51.5865755,-0.0761852632 50.2939939,0.536509474 C49.1593816,1.07462526 48.4883,2.35853053 48.5309633,3.45312 C48.5713204,4.46395158 49.034851,5.06746737 49.3288816,5.11221474 C50.728698,5.32562526 51.3455857,4.15760421 55.1472286,4.19202526" id="Fill-146" fill="#2C1609"></path>
                            <path d="M58.2174847,22.0891368 C54.7133316,23.1630737 51.1619031,23.0357158 50.2406071,24.1108 C49.7136582,24.7246421 50.0630357,25.8169368 50.6545561,29.3014947 C51.3394745,33.8175368 50.2071684,39.8538421 49.0345051,45.1214105 C48.0371071,49.5995895 45.8520561,54.3795263 44.8362092,57.4338211 C40.275852,71.1529053 62.1551888,68.3980737 61.4310663,52.3326211 C61.2119847,47.4471263 59.3198112,42.8702737 60.502852,38.259 C61.3007704,35.1473368 64.0554337,31.3552842 65.0020969,27.7777895 C66.1885969,23.3053474 65.5325051,18.7824211 63.8052194,18.7353789 C63.2644337,18.7216105 59.9828214,21.5475789 58.2174847,22.0891368" id="Fill-148" fill="#F38282"></path>
                            <path d="M43.8969255,41.5932526 C40.5057724,37.0680316 32.7249153,35.2219158 29.9621806,31.7637474 C29.6992827,29.9532 28.9993745,28.9125368 28.0077418,27.9889053 C26.3853847,26.4801158 26.1605378,26.2850632 25.6405071,25.0344316 C25.4237316,24.5146737 25.2830582,24.1108 25.1331602,23.8836211 C24.7238235,23.2606 23.981252,23.5956316 23.8440378,24.3356842 C23.7368031,24.9162526 23.9201398,25.6494211 24.1069357,26.0946 L24.9302214,28.0657789 L22.3888745,25.4004421 C21.6739765,24.6523579 20.6120071,23.5313789 19.9213235,22.7787053 L20.06315,28.7106 C20.0988949,30.2090632 24.2787418,31.8555368 26.4995378,34.2317368 C30.6701602,40.1108526 33.6185378,43.6562211 39.6421296,48.2445474 C41.4697316,49.3001263 42.9099051,49.2760316 43.8738643,48.7390632 C45.0223133,48.1011263 45.5169765,46.7128105 45.4743133,45.2200842 C45.4351092,43.8524211 44.9715786,42.8289684 43.8969255,41.5932526" id="Fill-150" fill="#EFAC83"></path>
                            <path d="M40.5596204,45.5411179 C37.0277939,43.6800863 30.231651,36.25776 27.0964776,32.7422232 C25.9664776,31.4743811 25.4787327,30.7584232 24.7269367,30.1962126 C23.5738755,29.3368337 22.6433551,28.6828337 22.0991102,27.9427811 C21.5444878,27.1866653 20.9771816,26.1838653 20.6600898,23.5827811 C20.3695184,23.2718442 20.1366,23.0297495 19.930202,22.7750337 L20.0812531,28.7929811 C20.118151,30.2444021 24.6808143,32.2396758 26.2858755,33.9297495 C30.570651,39.9901495 33.5155694,43.5779705 39.6417837,48.2443179 C41.4693857,49.2998968 42.9095592,49.2758021 43.8735184,48.7399811 C45.0219673,48.1008968 45.5166306,46.7125811 45.4739673,45.2198547 C45.4359163,43.8521916 43.5495082,47.1164547 40.5596204,45.5411179" id="Fill-152" fill="#E49E75"></path>
                            <path d="M44.1397602,40.6190221 L37.1360663,36.3817905 C35.3050051,36.5642221 32.8489847,41.8019589 33.627301,43.2487905 C35.7985153,45.0524537 39.4433418,49.1887168 42.4943418,49.2323168 C43.0858622,49.2414958 43.5943622,49.1749484 43.9979337,48.9500642 C46.2948316,47.6741905 45.6156786,42.3171274 44.1397602,40.6190221" id="Fill-154" fill="#F26F6C"></path>
                            <path d="M38.475001,43.8298179 C38.4392561,43.9135758 39.3859194,50.7358284 44.0788786,48.7761232 C44.9136949,48.4273232 45.3068888,47.2007863 45.5524908,46.4102495 C46.5856337,43.0897653 47.2774704,39.1772389 47.8736031,36.0139442 C48.5435316,32.45366 50.4587663,25.0095337 46.4807051,23.3745337 C44.6680929,22.6310389 43.033052,23.4651758 41.9042051,25.6555021 C39.2164194,30.8691442 38.7309806,42.3152916 38.475001,43.8298179" id="Fill-156" fill="#F26F6C"></path>
                            <path d="M43.8829735,23.4293779 C41.1479122,25.0127463 39.7596265,30.5487989 38.9271163,38.7295358 C39.5832082,41.1275358 39.8334224,41.9834726 41.5318816,44.1565884 C39.8391878,38.71462 44.1251163,26.8049358 45.8996776,23.3915147 C45.3796469,23.1241779 44.6762796,22.9704305 43.8829735,23.4293779" id="Fill-158" fill="#DC5757"></path>
                            <path d="M24.858501,27.8933295 L24.0905622,26.0563926 C23.7515622,25.2463505 23.4171745,24.0244032 24.4491643,23.5872558 C24.1539806,24.4730242 24.631348,25.4827084 24.9864908,26.2835716 C25.4477153,27.3184979 26.045001,28.4452137 26.3240418,29.2931189 C25.6725622,28.7435295 25.2205622,28.3086768 24.858501,27.8933295" id="Fill-160" fill="#E49E75"></path>
                            <path d="M38.5671306,37.5782663 C37.1488653,37.9041189 33.3126306,42.6634032 33.6274163,43.2485611 C35.7986306,45.0522242 39.4434571,49.1896347 42.4944571,49.2332347 C43.0859776,49.2412663 43.5990898,49.1919295 44.0026612,48.9670453 C44.6126306,48.6285716 45.0542531,47.9929295 45.2848653,47.2230453 C43.8585286,48.6056242 40.4166408,46.8375295 36.6853347,43.1418558 C36.729151,42.8332137 37.6758143,39.9716768 38.5671306,37.5782663" id="Fill-162" fill="#DC5757"></path>
                            <path d="M39.0579888,37.3341063 L36.6815296,35.9584116 C33.9925908,36.3152432 32.2779888,41.59658 33.0563051,43.0434116 C33.6270704,43.5172747 34.7374684,44.4546747 35.4892643,45.1258853 C35.5930398,41.96718 37.2188561,38.8176537 39.0579888,37.3341063" id="Fill-164" fill="#F37977"></path>
                            <path d="M46.2412143,24.0867053 C48.2371633,25.6700737 48.2925102,29.3634526 47.4161837,34.7423158 C47.2997245,35.4582737 45.8445612,44.9275053 44.4539694,46.5911895 C43.8555306,47.3082947 42.4822347,47.1304526 42.1340102,44.1495895 C41.3015,37.0221368 43.7782755,31.1935053 46.2412143,24.0867053" id="Fill-166" fill="#F38282"></path>
                            <path d="M86.932399,18.7040558 C93.1969806,20.30234 98.1251643,26.0529505 101.895674,33.5877189 C115.994154,61.7613505 105.307583,89.9567821 76.9595724,98.5413926 C54.0655418,105.476087 22.9282765,96.92934 16.7905316,80.4898453 C15.366501,76.6759926 14.9168071,69.8560347 16.6440929,63.0877084 C16.7455622,62.6895716 18.2364704,58.5085611 20.8354704,55.6103084 C20.1586235,58.3364558 21.9700827,58.7976979 25.2609194,58.5028242 C33.7935724,57.7386768 45.5132867,59.4539926 57.6123582,39.2545716 C63.2911847,29.7727189 73.390848,15.2493295 86.932399,18.7040558" id="Fill-168" fill="#2583D6"></path>
                            <path d="M86.932399,18.7040558 C93.1969806,20.30234 101.545144,29.9884242 105.666185,37.3396137 C114.943715,53.8892558 114.16194,69.4154453 106.926481,80.5322979 C86.9024194,111.305866 26.4624092,106.393982 16.7905316,80.4898453 C82.7882969,105.150235 57.5604704,31.4398453 86.932399,18.7040558" id="Fill-170" fill="#0E69B9"></path>
                            <path d="M86.8278163,18.6722737 C59.8300408,27.7514 42.6920918,71.4569579 47.4380918,100.498 C47.2316939,100.450958 47.0252959,100.403916 46.818898,100.354579 C42.1847449,71.4753158 59.4356939,27.5976526 86.312398,18.5586842 L86.8278163,18.6722737 Z" id="Fill-172" fill="#034E63"></path>
                            <path d="M38.4839949,98.2610905 C49.7055867,99.6046589 58.6637194,98.7797011 65.6581888,97.8468905 C71.236699,97.1033958 77.2037908,96.4459537 84.8762602,96.8716274 C84.4969031,97.0793011 84.1152398,97.2835326 83.7278112,97.4820274 C76.3954949,97.1905958 70.9968622,97.9099958 65.6397398,98.6248063 C59.2356378,99.4784484 51.3948214,100.211617 41.8924439,99.3327326 C40.7428418,99.0022905 39.6047704,98.6454589 38.4839949,98.2610905" id="Fill-174" fill="#034E63"></path>
                        </g>
                    </g>
                </g>
            </g>
        </g>
    </g>
</svg>